<mxfile host="app.diagrams.net" modified="2023-05-13T07:23:04.867Z" agent="Mozilla/5.0 (X11; Linux x86_64) AppleWebKit/537.36 (KHTML, like Gecko) Chrome/102.0.0.0 Safari/537.36" version="21.3.0" etag="LVZq4mTpucjOdiH5uZBv" type="device">
  <diagram id="UCAFyyYOc3Pje-tlUptC" name="ページ1">
    <mxGraphModel dx="981" dy="518" grid="1" gridSize="10" guides="1" tooltips="1" connect="1" arrows="1" fold="1" page="1" pageScale="1" pageWidth="1654" pageHeight="1169" math="0" shadow="0">
      <root>
        <mxCell id="0" />
        <mxCell id="1" parent="0" />
        <mxCell id="3rCkiLBGsuGbAyMgKd4v-3" style="edgeStyle=orthogonalEdgeStyle;rounded=0;orthogonalLoop=1;jettySize=auto;html=1;exitX=0;exitY=0.5;exitDx=0;exitDy=0;" edge="1" parent="1" source="3rCkiLBGsuGbAyMgKd4v-1" target="3rCkiLBGsuGbAyMgKd4v-2">
          <mxGeometry relative="1" as="geometry" />
        </mxCell>
        <mxCell id="3rCkiLBGsuGbAyMgKd4v-4" style="edgeStyle=orthogonalEdgeStyle;rounded=0;orthogonalLoop=1;jettySize=auto;html=1;exitX=0.5;exitY=0;exitDx=0;exitDy=0;entryX=0.5;entryY=0;entryDx=0;entryDy=0;" edge="1" parent="1" source="3rCkiLBGsuGbAyMgKd4v-1" target="3rCkiLBGsuGbAyMgKd4v-2">
          <mxGeometry relative="1" as="geometry">
            <Array as="points">
              <mxPoint x="300" y="130" />
              <mxPoint x="660" y="130" />
            </Array>
          </mxGeometry>
        </mxCell>
        <mxCell id="3rCkiLBGsuGbAyMgKd4v-5" style="edgeStyle=orthogonalEdgeStyle;rounded=0;orthogonalLoop=1;jettySize=auto;html=1;entryX=1;entryY=0.5;entryDx=0;entryDy=0;" edge="1" parent="1" source="3rCkiLBGsuGbAyMgKd4v-1" target="3rCkiLBGsuGbAyMgKd4v-2">
          <mxGeometry relative="1" as="geometry" />
        </mxCell>
        <mxCell id="3rCkiLBGsuGbAyMgKd4v-6" style="edgeStyle=orthogonalEdgeStyle;rounded=0;orthogonalLoop=1;jettySize=auto;html=1;exitX=0.5;exitY=1;exitDx=0;exitDy=0;entryX=-0.008;entryY=0.367;entryDx=0;entryDy=0;entryPerimeter=0;jumpStyle=arc;" edge="1" parent="1" source="3rCkiLBGsuGbAyMgKd4v-1" target="3rCkiLBGsuGbAyMgKd4v-2">
          <mxGeometry relative="1" as="geometry">
            <Array as="points">
              <mxPoint x="310" y="370" />
              <mxPoint x="540" y="370" />
              <mxPoint x="540" y="242" />
            </Array>
          </mxGeometry>
        </mxCell>
        <mxCell id="3rCkiLBGsuGbAyMgKd4v-1" value="" style="rounded=0;whiteSpace=wrap;html=1;" vertex="1" parent="1">
          <mxGeometry x="250" y="290" width="120" height="60" as="geometry" />
        </mxCell>
        <mxCell id="3rCkiLBGsuGbAyMgKd4v-2" value="" style="rounded=0;whiteSpace=wrap;html=1;" vertex="1" parent="1">
          <mxGeometry x="600" y="220" width="120" height="60" as="geometry" />
        </mxCell>
      </root>
    </mxGraphModel>
  </diagram>
</mxfile>
